<svg width="161" height="83" viewBox="0 0 161 83" fill="none" xmlns="http://www.w3.org/2000/svg">
<path d="M35.9999 5L0 83H9.41299L35.9999 25.3994L62.5814 83H72L35.9999 5Z" fill="white"/>
<path d="M42 67C42 67.9889 41.6481 68.9557 40.9888 69.7778C40.3295 70.6 39.3924 71.241 38.296 71.6194C37.1997 71.9978 35.9935 72.0968 34.8294 71.904C33.6655 71.7111 32.5964 71.2348 31.7575 70.5355C30.9183 69.8363 30.3468 68.9453 30.1153 67.9754C29.8838 67.0056 30.0026 66.0003 30.4568 65.0867C30.9108 64.1729 31.6799 63.3921 32.6665 62.8425C33.6534 62.2932 34.8132 62 36.0001 62C37.5915 62 39.1175 62.5268 40.2427 63.4645C41.3679 64.402 42 65.6739 42 67Z" fill="white"/>
<path d="M139.899 38L119 83H128.132L139.91 58.1173L151.551 83H161L139.899 38Z" fill="white"/>
<path d="M101.174 37.9177L111.377 59.936L121.58 37.9177H131L115.228 72.0518V83H107.505V72.0518L95.5075 46.0503H83.091V82.989H75.3028V46.0613H65.7689L62 37.9177H75.205V12.1709C75.205 8.94296 76.4657 5.84727 78.7095 3.56478C80.9534 1.28229 83.9966 0 87.1698 0C90.3433 0 93.3865 1.28229 95.6304 3.56478C97.8743 5.84727 99.1349 8.94296 99.1349 12.1709H91.2489C91.2508 11.626 91.1469 11.0861 90.9437 10.582C90.7403 10.0779 90.4415 9.6195 90.064 9.23294C89.6862 8.84637 89.2378 8.5392 88.7434 8.32902C88.2493 8.11882 87.7191 8.0097 87.1835 8.00789C86.1017 8.00423 85.0629 8.43785 84.2952 9.21337C83.5278 9.9889 83.0947 11.0428 83.091 12.1432V37.9177H101.174Z" fill="white"/>
</svg>
