<svg width="692" height="349" viewBox="0 0 692 349" fill="none" xmlns="http://www.w3.org/2000/svg">
<path d="M153.765 24.5829L0 348.258H40.1849L153.765 109.184L267.235 348.258H307.42L153.765 24.5829Z" fill="#D31C5B"/>
<path d="M179.227 280.821C179.227 294.884 167.825 306.29 153.765 306.29C139.706 306.29 128.304 294.884 128.304 280.821C128.304 266.758 139.706 255.352 153.765 255.352C167.825 255.352 179.227 266.758 179.227 280.821Z" fill="#D31C5B"/>
<path d="M602.221 159.014L513.327 348.258H552.183L602.221 243.614L651.815 348.258H692L602.221 159.014Z" fill="#D31C5B"/>
<path d="M434.949 159.014L478.566 251.366L522.072 159.014H562.257L494.95 302.303V348.258H461.961V302.303L410.706 193.23H357.79V348.258H324.579V193.23H283.841L267.9 159.014H324.247V65.2222V51.0483C324.247 22.9219 347.052 0 375.281 0C403.399 0 426.204 22.8112 426.204 51.0483H392.55C392.55 41.4144 384.801 33.6631 375.17 33.6631C365.65 33.6631 357.901 41.4144 357.79 50.9375V159.124L434.949 159.014Z" fill="#D31C5B"/>
</svg>
