<svg width="944" height="601" viewBox="0 0 944 601" fill="none" xmlns="http://www.w3.org/2000/svg">
<path d="M299.049 214.08C290.807 220.825 283.246 228.37 276.476 236.604C265.88 249.446 257.306 263.844 251.051 279.297C250.594 280.425 252.415 280.915 252.868 279.801C263.101 254.686 279.436 232.551 300.381 215.419C301.321 214.649 299.981 213.317 299.049 214.08Z" fill="white"/>
<path d="M708.477 593.893C695.627 583.035 687.821 565.883 689.868 549.186C691.915 532.488 704.593 517.138 721.039 513.592C737.485 510.046 756.232 519.862 761.227 535.926C763.976 504.955 767.144 472.687 783.611 446.312C798.522 422.431 824.347 405.343 852.336 402.286C880.325 399.229 909.794 410.775 927.25 432.865C944.706 454.954 948.979 487.068 936.754 512.429C927.748 531.112 911.155 545.015 893.771 556.327C837.594 592.57 770.218 607.309 704.039 597.831L708.477 593.893Z" fill="#F2F2F2"/>
<path d="M263.116 590.943C280.766 576.03 291.487 552.472 288.675 529.538C285.864 506.603 268.45 485.52 245.862 480.65C223.273 475.78 197.524 489.261 190.663 511.325C186.887 468.787 182.536 424.466 159.919 388.241C139.439 355.44 103.968 331.969 65.5249 327.771C27.082 323.572 -13.3934 339.43 -37.3688 369.771C-61.3442 400.111 -67.2145 444.219 -50.4227 479.052C-38.0528 504.713 -15.2631 523.81 8.61484 539.346C84.7937 588.912 179.294 609.584 269.212 596.352" fill="#F2F2F2"/>
<path d="M660.491 599.365H239.388V167.332C239.388 75.4142 314.174 0.633545 406.098 0.633545H493.781C585.705 0.633545 660.491 75.4142 660.491 167.332V599.365Z" fill="#F2F2F2"/>
<path d="M572.809 599.365H239.388V167.332C239.295 132.111 250.449 97.7807 271.225 69.3385C271.991 68.2947 272.755 67.2645 273.543 66.2455C283.592 53.0665 295.55 41.46 309.024 31.8091C309.785 31.2553 310.549 30.7112 311.325 30.1671C322.599 22.3656 334.795 15.988 347.634 11.1796C348.397 10.8906 349.173 10.6011 349.949 10.3233C361.562 6.17961 373.599 3.34117 385.839 1.86044C386.598 1.75679 387.377 1.67568 388.156 1.59457C400.085 0.319268 412.115 0.319268 424.043 1.59457C424.82 1.67568 425.599 1.75678 426.367 1.86155C438.604 3.34238 450.638 6.18047 462.247 10.3234C463.024 10.6011 463.8 10.8906 464.565 11.1802C477.246 15.928 489.299 22.2104 500.453 29.8871C501.228 30.4195 502.003 30.9636 502.768 31.5077C510.32 36.8983 517.414 42.9038 523.977 49.4628C529.24 54.7238 534.144 60.3317 538.657 66.2489C539.442 67.2645 540.206 68.2948 540.971 69.3369C561.747 97.7794 572.901 132.111 572.809 167.332V599.365Z" fill="#CCCCCC"/>
<path d="M545.697 406.133C555.892 406.133 564.157 397.869 564.157 387.675C564.157 377.481 555.892 369.217 545.697 369.217C535.503 369.217 527.238 377.481 527.238 387.675C527.238 397.869 535.503 406.133 545.697 406.133Z" fill="#FCBF49"/>
<path d="M625.994 586.425H611.85L605.12 531.872L625.997 531.873L625.994 586.425Z" fill="#FFB8B8"/>
<path d="M601.746 582.383H629.025V599.557H584.571C584.571 597.302 585.016 595.069 585.879 592.985C586.742 590.902 588.007 589.008 589.602 587.414C591.197 585.819 593.09 584.554 595.174 583.691C597.258 582.828 599.491 582.383 601.746 582.383Z" fill="#2F2E41"/>
<path d="M696.371 586.425H682.226L675.497 531.872L696.373 531.873L696.371 586.425Z" fill="#FFB8B8"/>
<path d="M672.123 582.383H699.401V599.557H654.948C654.948 597.302 655.392 595.069 656.255 592.985C657.118 590.902 658.383 589.008 659.978 587.414C661.573 585.819 663.466 584.554 665.55 583.691C667.634 582.828 669.867 582.383 672.123 582.383Z" fill="#2F2E41"/>
<path d="M555.04 391.331C554.022 389.832 553.346 388.128 553.058 386.34C552.77 384.551 552.878 382.721 553.374 380.978C553.87 379.236 554.743 377.623 555.929 376.254C557.116 374.885 558.589 373.793 560.243 373.054L608.325 240.541L631.985 253.452L577.085 380.086C578.142 382.948 578.112 386.098 577.001 388.939C575.89 391.779 573.775 394.114 571.058 395.5C568.34 396.886 565.209 397.228 562.256 396.459C559.304 395.691 556.736 393.866 555.04 391.331Z" fill="#FFB8B8"/>
<path d="M689.146 416.231C687.574 415.33 686.219 414.095 685.176 412.614C684.133 411.132 683.427 409.44 683.109 407.656C682.791 405.873 682.867 404.041 683.334 402.29C683.8 400.54 684.645 398.912 685.808 397.523L670.913 257.347L697.838 258.577L704.028 396.459C706.232 398.568 707.586 401.412 707.833 404.452C708.081 407.492 707.204 410.518 705.37 412.955C703.535 415.392 700.87 417.072 697.88 417.676C694.89 418.279 691.782 417.766 689.146 416.231Z" fill="#FFB8B8"/>
<path d="M646.192 215.996C661.842 215.996 674.528 203.311 674.528 187.662C674.528 172.014 661.842 159.328 646.192 159.328C630.542 159.328 617.856 172.014 617.856 187.662C617.856 203.311 630.542 215.996 646.192 215.996Z" fill="#FFB8B8"/>
<path d="M688.965 384.351H603.536L603.639 383.686C603.792 382.693 618.864 283.968 607.748 251.67C606.632 248.496 606.731 245.022 608.023 241.916C609.316 238.81 611.712 236.291 614.75 234.846H614.75C630.639 227.364 661.138 218.152 686.88 240.509C690.669 243.853 693.627 248.033 695.521 252.717C697.415 257.402 698.193 262.463 697.794 267.5L688.965 384.351Z" fill="#004AAD"/>
<path d="M630.299 255.986L619.577 297.973L582.181 290.387L599.972 248.231L599.986 248.198L599.995 248.163C601.04 244.154 603.633 240.723 607.205 238.623C610.777 236.522 615.037 235.925 619.049 236.96C623.061 237.996 626.499 240.581 628.608 244.147C630.717 247.714 631.325 251.971 630.299 255.986L630.299 255.986Z" fill="#004AAD" stroke="#004AAD"/>
<path d="M669.202 313.045L666.89 260.045C665.137 250.082 670.84 240.664 679.612 239.125C688.387 237.591 696.955 244.501 698.716 254.537L707.407 304.059L669.202 313.045Z" fill="#004AAD"/>
<path d="M686.122 378.006C699.868 430.354 701.368 496.909 697.659 569.508L679.2 567.201L645.742 428.765L627.283 569.508L606.516 568.354C600.312 492.181 594.272 426.787 604.209 383.774L686.122 378.006Z" fill="#2F2E41"/>
<path d="M664.863 209.56C659.577 215.19 649.759 212.168 649.07 204.475C649.016 203.878 649.02 203.277 649.082 202.681C649.438 199.273 651.406 196.18 650.935 192.582C650.828 191.687 650.495 190.834 649.966 190.103C645.753 184.463 635.865 192.626 631.889 187.52C629.451 184.389 632.317 179.459 630.446 175.96C627.977 171.341 620.664 173.62 616.078 171.09C610.975 168.276 611.281 160.448 614.64 155.686C618.736 149.88 625.918 146.781 633.01 146.334C640.103 145.888 647.147 147.805 653.768 150.385C661.292 153.317 668.752 157.369 673.382 163.984C679.013 172.028 679.554 182.843 676.738 192.25C675.026 197.972 669.18 204.962 664.863 209.56Z" fill="#2F2E41"/>
<path d="M909.094 600.107H57.318C56.9543 600.106 56.606 599.961 56.3492 599.704C56.0924 599.446 55.9482 599.097 55.9482 598.734C55.9482 598.37 56.0924 598.021 56.3492 597.764C56.606 597.506 56.9543 597.361 57.318 597.36H909.094C909.458 597.361 909.806 597.506 910.063 597.764C910.32 598.021 910.464 598.37 910.464 598.734C910.464 599.097 910.32 599.446 910.063 599.704C909.806 599.961 909.458 600.106 909.094 600.107Z" fill="#3F3D56"/>
<path d="M481.09 474.197H331.108C329.132 474.207 327.233 473.434 325.828 472.047C324.422 470.659 323.624 468.771 323.608 466.796V132.049C323.624 130.074 324.422 128.186 325.828 126.798C327.233 125.411 329.132 124.638 331.108 124.648H481.09C483.065 124.638 484.964 125.411 486.37 126.798C487.775 128.186 488.574 130.074 488.589 132.049V466.796C488.574 468.771 487.775 470.659 486.37 472.047C484.964 473.434 483.065 474.207 481.09 474.197Z" fill="white"/>
<path d="M488.589 232.962H323.608V235.269H488.589V232.962Z" fill="#CCCCCC"/>
<path d="M489.165 364.602H324.185V366.91H489.165V364.602Z" fill="#CCCCCC"/>
<path d="M377.833 124.648H375.525V475.35H377.833V124.648Z" fill="#CCCCCC"/>
<path d="M435.518 124.648H433.21V475.35H435.518V124.648Z" fill="#CCCCCC"/>
</svg>
