<svg width="65" height="65" viewBox="0 0 65 65" fill="none" xmlns="http://www.w3.org/2000/svg">
<g clip-path="url(#clip0)">
<path d="M58.7097 3.1452H6.29032C2.83065 3.1452 0 5.97585 0 9.43553C0 12.8952 2.83065 15.7258 6.29032 15.7258H58.7097C62.1694 15.7258 65 12.8952 65 9.43553C65 5.97585 62.1694 3.1452 58.7097 3.1452Z" fill="#ECEBE4"/>
<path d="M58.7097 23.6046H6.29032C2.83065 23.6046 0 26.4353 0 29.8949C0 33.3546 2.83065 36.1853 6.29032 36.1853H58.7097C62.1694 36.1853 65 33.3546 65 29.8949C65 26.4353 62.1694 23.6046 58.7097 23.6046Z" fill="#ECEBE4"/>
<path d="M58.7097 44.064H6.29032C2.83065 44.064 0 46.8947 0 50.3544C0 53.814 2.83065 56.6447 6.29032 56.6447H58.7097C62.1694 56.6447 65 53.814 65 50.3544C65 46.8947 62.1694 44.064 58.7097 44.064Z" fill="#ECEBE4"/>
</g>
<defs>
<clipPath id="clip0">
<rect width="65" height="65" fill="white"/>
</clipPath>
</defs>
</svg>
