<svg width="232" height="232" viewBox="0 0 232 232" fill="none" xmlns="http://www.w3.org/2000/svg">
<path d="M0 0H231.77V231.77H0V0Z" fill="#004AAD"/>
<path d="M164.722 26.4535C152.961 14.727 133.859 14.727 122.098 26.4535L116.895 31.6417L111.697 26.4535C99.9311 14.727 80.8288 14.727 69.0679 26.4535C57.3069 38.1849 57.3069 57.233 69.0679 68.9595L115.885 115.648C116.146 115.905 116.521 116.048 116.895 116.048C117.274 116.048 117.649 115.905 117.91 115.648L164.722 68.9595C176.483 57.233 176.483 38.1849 164.722 26.4535ZM162.702 66.9443L116.895 112.618L71.0929 66.9443C60.4553 56.3412 60.4553 39.0767 71.0929 28.4736C76.2072 23.3445 83.0854 20.5459 90.3972 20.5459C97.709 20.5459 104.558 23.3692 109.702 28.4736L115.885 34.667C116.432 35.2139 117.358 35.2139 117.91 34.667L124.123 28.4736C134.756 17.8656 152.065 17.8656 162.702 28.4736C173.335 39.0767 173.335 56.3412 162.702 66.9443ZM135.248 58.2677H125.508V48.5564C125.508 46.1963 123.571 44.2649 121.201 44.2649H112.559C110.194 44.2649 108.258 46.1963 108.258 48.5564V58.2677H98.517C96.1471 58.2677 94.2108 60.1991 94.2108 62.5641V71.1816C94.2108 73.5416 96.1471 75.4731 98.517 75.4731H108.258V85.1843C108.258 87.5493 110.194 89.4808 112.559 89.4808H121.201C123.571 89.4808 125.508 87.5493 125.508 85.1843V75.4731H135.248C137.618 75.4731 139.555 73.5416 139.555 71.1816V62.5641C139.555 60.1991 137.618 58.2677 135.248 58.2677ZM136.692 71.1816C136.692 71.9847 136.027 72.6203 135.248 72.6203H124.094C123.31 72.6203 122.675 73.2559 122.675 74.0343V85.1548C122.675 85.9628 122.009 86.5984 121.231 86.5984H112.559C111.751 86.5984 111.116 85.9333 111.116 85.1548V74.0343C111.116 73.2559 110.48 72.6203 109.702 72.6203H98.5466C97.7386 72.6203 97.103 71.96 97.103 71.1816V62.5641C97.103 61.7561 97.7632 61.1205 98.5466 61.1205H109.702C110.48 61.1205 111.116 60.4898 111.116 59.7113V48.586C111.116 47.7779 111.781 47.1473 112.559 47.1473H121.201C122.009 47.1473 122.645 47.8075 122.645 48.586V59.7113C122.645 60.4898 123.281 61.1205 124.064 61.1205H135.219C136.027 61.1205 136.663 61.7856 136.663 62.5641V71.1816H136.692ZM152.469 28.9318C151.833 28.4736 150.941 28.6165 150.478 29.2521C150.015 29.8828 150.158 30.7795 150.823 31.2377C150.941 31.3264 161.805 39.2491 158.164 51.961C157.933 52.7099 158.396 53.513 159.145 53.7151C159.293 53.7446 159.406 53.7742 159.549 53.7742C160.184 53.7742 160.736 53.3702 160.938 52.7346C165.072 38.1258 152.587 29.0205 152.469 28.9318ZM157.76 56.8585C157.066 56.4841 156.198 56.7157 155.824 57.4054C155.218 58.4697 154.523 59.5389 153.74 60.6031C153.282 61.2387 153.424 62.1305 154.06 62.5937C154.321 62.7661 154.607 62.8499 154.898 62.8499C155.331 62.8499 155.765 62.6479 156.056 62.2734C156.893 61.1205 157.642 59.9429 158.307 58.79C158.682 58.0952 158.45 57.233 157.76 56.8585Z" fill="white"/>
<path d="M52.216 157.8L41.308 183H35.548L24.676 157.8H30.976L38.644 175.8L46.42 157.8H52.216ZM56.12 157.8H61.952V183H56.12V157.8ZM74.9525 162.552H66.8885V157.8H88.8485V162.552H80.7845V183H74.9525V162.552ZM109.117 177.6H97.4168L95.1848 183H89.2088L100.441 157.8H106.201L117.469 183H111.349L109.117 177.6ZM107.281 173.172L103.285 163.524L99.2888 173.172H107.281ZM121.883 157.8H127.715V178.248H140.351V183H121.883V157.8ZM145.41 157.8H151.242V183H145.41V157.8ZM164.242 162.552H156.178V157.8H178.138V162.552H170.074V183H164.242V162.552ZM194.715 174.072V183H188.883V174L179.127 157.8H185.319L192.051 168.996L198.783 157.8H204.507L194.715 174.072Z" fill="white"/>
<path d="M78.425 200.9V210H76.319V206.269H72.185V210H70.079V200.9H72.185V204.488H76.319V200.9H78.425ZM87.624 208.31V210H80.578V200.9H87.455V202.59H82.671V204.566H86.896V206.204H82.671V208.31H87.624ZM95.2927 208.05H91.0677L90.2617 210H88.1037L92.1597 200.9H94.2397L98.3087 210H96.0987L95.2927 208.05ZM94.6297 206.451L93.1867 202.967L91.7437 206.451H94.6297ZM99.2528 200.9H101.359V208.284H105.922V210H99.2528V200.9ZM108.133 202.616H105.221V200.9H113.151V202.616H110.239V210H108.133V202.616ZM122.63 200.9V210H120.524V206.269H116.39V210H114.284V200.9H116.39V204.488H120.524V200.9H122.63ZM132.82 210.156C131.892 210.156 131.052 209.957 130.298 209.558C129.552 209.151 128.963 208.592 128.53 207.881C128.105 207.162 127.893 206.351 127.893 205.45C127.893 204.549 128.105 203.743 128.53 203.032C128.963 202.313 129.552 201.754 130.298 201.355C131.052 200.948 131.897 200.744 132.833 200.744C133.621 200.744 134.332 200.883 134.965 201.16C135.606 201.437 136.143 201.836 136.577 202.356L135.225 203.604C134.609 202.893 133.847 202.538 132.937 202.538C132.373 202.538 131.871 202.664 131.429 202.915C130.987 203.158 130.64 203.5 130.389 203.942C130.146 204.384 130.025 204.887 130.025 205.45C130.025 206.013 130.146 206.516 130.389 206.958C130.64 207.4 130.987 207.747 131.429 207.998C131.871 208.241 132.373 208.362 132.937 208.362C133.847 208.362 134.609 208.002 135.225 207.283L136.577 208.531C136.143 209.06 135.606 209.463 134.965 209.74C134.323 210.017 133.608 210.156 132.82 210.156ZM143.814 208.05H139.589L138.783 210H136.625L140.681 200.9H142.761L146.83 210H144.62L143.814 208.05ZM143.151 206.451L141.708 202.967L140.265 206.451H143.151ZM153.572 210L151.817 207.465H151.713H149.88V210H147.774V200.9H151.713C152.519 200.9 153.217 201.034 153.806 201.303C154.404 201.572 154.864 201.953 155.184 202.447C155.505 202.941 155.665 203.526 155.665 204.202C155.665 204.878 155.501 205.463 155.171 205.957C154.851 206.442 154.391 206.815 153.793 207.075L155.834 210H153.572ZM153.533 204.202C153.533 203.691 153.369 203.301 153.039 203.032C152.71 202.755 152.229 202.616 151.596 202.616H149.88V205.788H151.596C152.229 205.788 152.71 205.649 153.039 205.372C153.369 205.095 153.533 204.705 153.533 204.202ZM164.38 208.31V210H157.334V200.9H164.211V202.59H159.427V204.566H163.652V206.204H159.427V208.31H164.38Z" fill="white"/>
<line x1="21" y1="137" x2="212" y2="137" stroke="white" stroke-width="10"/>
</svg>
