<svg width="1191" height="712" viewBox="0 0 1191 712" fill="none" xmlns="http://www.w3.org/2000/svg">
<path d="M426.039 253.271C416.26 261.275 407.289 270.227 399.255 279.997C386.682 295.235 376.508 312.32 369.087 330.656C368.544 331.994 370.705 332.576 371.242 331.253C383.384 301.453 402.768 275.188 427.62 254.859C428.736 253.946 427.146 252.365 426.039 253.271Z" fill="white"/>
<path d="M911.858 703.948C896.61 691.065 887.348 670.713 889.777 650.9C892.206 631.087 907.25 612.873 926.764 608.665C946.278 604.458 968.523 616.105 974.45 635.166C977.712 598.417 981.471 560.128 1001.01 528.833C1018.7 500.495 1049.35 480.219 1082.56 476.592C1115.77 472.964 1150.74 486.665 1171.45 512.876C1192.16 539.087 1197.23 577.193 1182.73 607.285C1172.04 629.454 1152.35 645.951 1131.72 659.373C1065.07 702.379 985.119 719.867 906.592 708.621L911.858 703.948Z" fill="#F2F2F2"/>
<path d="M383.402 700.448C404.345 682.752 417.066 654.799 413.73 627.586C410.394 600.373 389.731 575.355 362.929 569.577C336.126 563.798 305.572 579.795 297.431 605.975C292.951 555.5 287.788 502.91 260.951 459.926C236.65 421.005 194.561 393.156 148.945 388.174C103.33 383.191 55.3024 402.009 26.8537 438.01C-1.59498 474.011 -8.56052 526.349 11.3642 567.681C26.042 598.129 53.0838 620.789 81.4168 639.224C171.809 698.038 283.94 722.567 390.635 706.866" fill="#F2F2F2"/>
<path d="M71.962 403.052C109.6 433.707 144.13 467.991 175.05 505.411C205.976 542.792 233.203 583.084 256.348 625.721C269.285 649.639 280.907 674.245 291.161 699.43C293.252 704.553 284.932 706.783 282.865 701.717C264.702 657.316 242.23 614.803 215.773 574.786C189.445 534.914 159.31 497.69 125.793 463.636C106.835 444.385 86.8337 426.19 65.8783 409.135C61.583 405.638 67.7022 399.583 71.962 403.052L71.962 403.052Z" fill="white"/>
<path d="M854.919 710.441H355.247V197.801C355.247 88.733 443.986 0 553.062 0H657.104C766.18 0 854.919 88.733 854.919 197.801V710.441Z" fill="#F2F2F2"/>
<path d="M750.878 710.441H355.247V197.801C355.137 156.009 368.372 115.273 393.024 81.5237C393.933 80.2852 394.839 79.0627 395.774 77.8536C407.698 62.2158 421.888 48.4438 437.875 36.9922C438.778 36.3351 439.685 35.6895 440.605 35.0438C453.983 25.7867 468.454 18.2193 483.69 12.5137C484.594 12.1708 485.515 11.8272 486.437 11.4977C500.215 6.58081 514.499 3.21279 529.023 1.45578C529.923 1.33279 530.848 1.23655 531.772 1.1403C545.926 -0.372939 560.201 -0.372939 574.355 1.1403C575.276 1.23655 576.201 1.33278 577.112 1.4571C591.632 3.21422 605.912 6.58183 619.687 11.4977C620.609 11.8273 621.53 12.1708 622.437 12.5144C637.484 18.148 651.785 25.6026 665.021 34.7116C665.94 35.3433 666.861 35.989 667.767 36.6346C676.729 43.031 685.146 50.1569 692.934 57.9396C699.179 64.1822 704.998 70.8365 710.353 77.8577C711.285 79.0628 712.191 80.2853 713.098 81.5218C737.751 115.271 750.987 156.008 750.878 197.801V710.441Z" fill="#CCCCCC"/>
<path d="M718.707 481.156C730.804 481.156 740.61 471.351 740.61 459.255C740.61 447.159 730.804 437.353 718.707 437.353C706.61 437.353 696.803 447.159 696.803 459.255C696.803 471.351 706.61 481.156 718.707 481.156Z" fill="#F50057"/>
<path d="M813.986 695.087H797.202L789.217 630.356L813.988 630.357L813.986 695.087Z" fill="#FFB8B8"/>
<path d="M785.214 690.292H817.581V710.67H764.834C764.834 707.994 765.361 705.344 766.385 702.871C767.41 700.399 768.911 698.152 770.803 696.26C772.695 694.368 774.942 692.867 777.415 691.843C779.887 690.819 782.537 690.292 785.214 690.292V690.292Z" fill="#2F2E41"/>
<path d="M897.492 695.087H880.709L872.724 630.356L897.495 630.357L897.492 695.087Z" fill="#FFB8B8"/>
<path d="M868.72 690.292H901.088V710.67H848.341C848.341 707.994 848.868 705.344 849.892 702.871C850.916 700.399 852.417 698.152 854.31 696.26C856.202 694.368 858.449 692.867 860.922 691.843C863.394 690.819 866.044 690.292 868.72 690.292V690.292Z" fill="#2F2E41"/>
<path d="M729.792 463.593C728.585 461.815 727.782 459.793 727.441 457.67C727.099 455.548 727.227 453.376 727.816 451.308C728.405 449.241 729.44 447.327 730.848 445.703C732.256 444.078 734.004 442.782 735.967 441.906L793.02 284.669L821.093 299.989L755.951 450.25C757.205 453.646 757.169 457.383 755.851 460.754C754.532 464.125 752.023 466.895 748.799 468.54C745.574 470.185 741.859 470.59 738.356 469.678C734.853 468.766 731.806 466.601 729.792 463.593V463.593Z" fill="#FFB8B8"/>
<path d="M888.919 493.139C887.054 492.07 885.446 490.604 884.208 488.846C882.971 487.088 882.134 485.081 881.756 482.964C881.379 480.848 881.47 478.674 882.023 476.597C882.576 474.52 883.578 472.589 884.959 470.941L867.284 304.61L899.233 306.07L906.578 469.677C909.194 472.18 910.8 475.554 911.094 479.162C911.387 482.769 910.347 486.359 908.17 489.251C905.994 492.143 902.832 494.136 899.284 494.853C895.735 495.569 892.048 494.959 888.919 493.139V493.139Z" fill="#FFB8B8"/>
<path d="M837.952 255.545C856.521 255.545 871.575 240.492 871.575 221.924C871.575 203.356 856.521 188.303 837.952 188.303C819.382 188.303 804.329 203.356 804.329 221.924C804.329 240.492 819.382 255.545 837.952 255.545Z" fill="#FFB8B8"/>
<path d="M888.705 455.31H787.337L787.459 454.522C787.641 453.343 805.525 336.198 792.335 297.874C791.011 294.108 791.128 289.985 792.662 286.3C794.196 282.614 797.039 279.626 800.644 277.911H800.644C819.497 269.034 855.687 258.102 886.232 284.631C890.727 288.599 894.236 293.559 896.484 299.117C898.732 304.675 899.655 310.68 899.181 316.657L888.705 455.31Z" fill="#F50057"/>
<path d="M806.806 353.51L761.169 344.252L782.561 293.564C783.841 288.654 787.016 284.453 791.39 281.881C795.764 279.309 800.98 278.577 805.893 279.846C810.805 281.114 815.015 284.279 817.597 288.646C820.18 293.013 820.924 298.227 819.668 303.142L806.806 353.51Z" fill="#F50057"/>
<path d="M865.255 370.7L862.512 307.812C860.431 295.99 867.199 284.815 877.608 282.988C888.019 281.168 898.186 289.367 900.275 301.276L910.588 360.038L865.255 370.7Z" fill="#F50057"/>
<path d="M885.332 447.782C901.643 509.896 903.422 588.87 899.022 675.014L877.118 672.276L837.418 508.012L815.515 675.014L790.873 673.645C783.512 583.259 776.344 505.664 788.135 454.626L885.332 447.782Z" fill="#2F2E41"/>
<path d="M860.106 247.907C853.834 254.588 842.185 251.002 841.367 241.874C841.303 241.166 841.308 240.452 841.381 239.745C841.803 235.702 844.139 232.031 843.58 227.762C843.453 226.7 843.057 225.687 842.43 224.821C837.431 218.128 825.698 227.814 820.98 221.755C818.088 218.04 821.488 212.191 819.268 208.039C816.339 202.558 807.661 205.262 802.219 202.26C796.165 198.921 796.527 189.632 800.512 183.982C805.373 177.092 813.895 173.415 822.311 172.885C830.727 172.356 839.085 174.63 846.942 177.692C855.869 181.171 864.721 185.979 870.215 193.828C876.896 203.373 877.539 216.206 874.198 227.367C872.165 234.157 865.229 242.451 860.106 247.907Z" fill="#2F2E41"/>
<path d="M1149.91 711.322H139.207C138.775 711.321 138.362 711.149 138.057 710.843C137.753 710.538 137.582 710.124 137.582 709.692C137.582 709.261 137.753 708.847 138.057 708.542C138.362 708.236 138.775 708.064 139.207 708.062H1149.91C1150.34 708.064 1150.75 708.236 1151.06 708.542C1151.36 708.847 1151.53 709.261 1151.53 709.692C1151.53 710.124 1151.36 710.538 1151.06 710.843C1150.75 711.149 1150.34 711.321 1149.91 711.322V711.322Z" fill="#3F3D56"/>
<path d="M642.045 561.92H464.079C461.736 561.932 459.482 561.015 457.814 559.368C456.146 557.722 455.199 555.481 455.181 553.138V155.935C455.199 153.591 456.146 151.351 457.814 149.704C459.482 148.058 461.736 147.14 464.079 147.153H642.045C644.389 147.14 646.642 148.058 648.31 149.704C649.978 151.351 650.925 153.591 650.943 155.935V553.138C650.925 555.481 649.978 557.722 648.31 559.368C646.642 561.015 644.389 561.932 642.045 561.92V561.92Z" fill="white"/>
<path d="M650.943 275.675H455.181V278.413H650.943V275.675Z" fill="#CCCCCC"/>
<path d="M651.628 431.877H455.865V434.615H651.628V431.877Z" fill="#CCCCCC"/>
<path d="M519.522 147.153H516.784V563.288H519.522V147.153Z" fill="#CCCCCC"/>
<path d="M587.971 147.153H585.233V563.288H587.971V147.153Z" fill="#CCCCCC"/>
</svg>
