<svg width="715" height="597" viewBox="0 0 715 597" fill="none" xmlns="http://www.w3.org/2000/svg">
<path d="M559.919 483H326.081C322.348 482.996 318.769 481.513 316.129 478.877C313.489 476.241 312.004 472.667 312 468.939V301.061C312.004 297.333 313.489 293.759 316.129 291.123C318.769 288.487 322.348 287.004 326.081 287H559.919C563.652 287.004 567.231 288.487 569.871 291.123C572.511 293.759 573.996 297.333 574 301.061V468.939C573.996 472.667 572.511 476.241 569.871 478.877C567.231 481.513 563.652 482.996 559.919 483V483Z" fill="#E6E6E6"/>
<path d="M330.803 472H555.197C557.001 472 558.732 471.28 560.007 469.998C561.283 468.717 562 466.979 562 465.166V304.834C562 303.021 561.283 301.283 560.007 300.002C558.732 298.72 557.001 298 555.197 298H330.803C328.999 298 327.268 298.72 325.993 300.002C324.717 301.283 324 303.021 324 304.834V465.166C324 466.979 324.717 468.717 325.993 469.998C327.268 471.28 328.999 472 330.803 472Z" fill="white"/>
<path d="M246.972 258H14.0277C10.3086 257.996 6.74305 256.513 4.11325 253.877C1.48346 251.241 0.00420107 247.667 0 243.939V76.0609C0.00419883 72.333 1.48346 68.759 4.11325 66.123C6.74305 63.487 10.3086 62.0042 14.0277 62H246.972C250.691 62.0042 254.257 63.487 256.887 66.123C259.517 68.759 260.996 72.333 261 76.0609V243.939C260.996 247.667 259.517 251.241 256.887 253.877C254.257 256.513 250.691 257.996 246.972 258V258Z" fill="#E6E6E6"/>
<path d="M18.8031 247H243.197C245.001 247 246.732 246.28 248.007 244.998C249.283 243.717 250 241.979 250 240.166V79.8338C250 78.0213 249.283 76.2832 248.007 75.0016C246.732 73.72 245.001 73 243.197 73H18.8031C16.9988 73 15.2684 73.72 13.9926 75.0016C12.7168 76.2832 12 78.0213 12 79.8338V240.166C12 241.979 12.7168 243.717 13.9926 244.998C15.2684 246.28 16.9988 247 18.8031 247Z" fill="white"/>
<path d="M528.867 348H385.133C384.459 348 383.792 348.129 383.169 348.381C382.546 348.632 381.98 349 381.504 349.464C381.027 349.929 380.649 350.48 380.391 351.087C380.133 351.693 380 352.343 380 353C380 353.657 380.133 354.307 380.391 354.913C380.649 355.52 381.027 356.071 381.504 356.536C381.98 357 382.546 357.368 383.169 357.619C383.792 357.871 384.459 358 385.133 358H528.867C530.228 358 531.534 357.473 532.496 356.536C533.459 355.598 534 354.326 534 353C534 351.674 533.459 350.402 532.496 349.464C531.534 348.527 530.228 348 528.867 348V348Z" fill="#E6E6E6"/>
<path d="M385.133 380C384.459 380 383.792 380.129 383.169 380.381C382.546 380.632 381.98 381 381.504 381.464C381.027 381.929 380.649 382.48 380.391 383.087C380.133 383.693 380 384.343 380 385C380 385.657 380.133 386.307 380.391 386.913C380.649 387.52 381.027 388.071 381.504 388.536C381.98 389 382.546 389.368 383.169 389.619C383.792 389.871 384.459 390 385.133 390H528.867C530.228 390 531.534 389.473 532.496 388.536C533.459 387.598 534 386.326 534 385C534 383.674 533.459 382.402 532.496 381.464C531.534 380.527 530.228 380 528.867 380H385.133Z" fill="#E6E6E6"/>
<path d="M385.133 411C383.772 411 382.466 411.527 381.504 412.464C380.541 413.402 380 414.674 380 416C380 417.326 380.541 418.598 381.504 419.536C382.466 420.473 383.772 421 385.133 421H528.867C530.228 421 531.534 420.473 532.496 419.536C533.459 418.598 534 417.326 534 416C534 414.674 533.459 413.402 532.496 412.464C531.534 411.527 530.228 411 528.867 411H385.133Z" fill="#E6E6E6"/>
<path d="M358 360C361.314 360 364 357.09 364 353.5C364 349.91 361.314 347 358 347C354.686 347 352 349.91 352 353.5C352 357.09 354.686 360 358 360Z" fill="#004AAD"/>
<path d="M358 391C361.314 391 364 388.314 364 385C364 381.686 361.314 379 358 379C354.686 379 352 381.686 352 385C352 388.314 354.686 391 358 391Z" fill="#E6E6E6"/>
<path d="M358 423C361.314 423 364 420.09 364 416.5C364 412.91 361.314 410 358 410C354.686 410 352 412.91 352 416.5C352 420.09 354.686 423 358 423Z" fill="#E6E6E6"/>
<path d="M472 353C472 353.656 471.867 354.306 471.608 354.913C471.348 355.52 470.969 356.071 470.49 356.535C470.011 356.999 469.443 357.368 468.818 357.619C468.192 357.87 467.522 357.999 466.845 357.999H385.341C384.067 358.018 382.83 357.589 381.857 356.792C380.884 355.996 380.24 354.885 380.044 353.664C379.948 352.958 380.009 352.24 380.221 351.558C380.434 350.876 380.794 350.246 381.278 349.71C381.762 349.174 382.358 348.744 383.026 348.449C383.695 348.154 384.42 348.001 385.155 348H466.845C468.212 348 469.523 348.527 470.49 349.464C471.457 350.402 472 351.674 472 353V353Z" fill="#004AAD"/>
<path d="M443.5 266C454.822 266 464 256.822 464 245.5C464 234.178 454.822 225 443.5 225C432.178 225 423 234.178 423 245.5C423 256.822 432.178 266 443.5 266Z" fill="#E6E6E6"/>
<path d="M453.246 246.887C454.152 241.302 450.358 236.041 444.771 235.134C439.183 234.228 433.919 238.02 433.012 243.605C432.106 249.189 435.9 254.451 441.487 255.357C447.075 256.263 452.339 252.471 453.246 246.887Z" fill="white"/>
<path d="M35.064 155C33.7209 155 32.4329 155.527 31.4832 156.464C30.5335 157.402 30 158.674 30 160C30 161.326 30.5335 162.598 31.4832 163.536C32.4329 164.473 33.7209 165 35.064 165H225.936C227.279 165 228.567 164.473 229.517 163.536C230.466 162.598 231 161.326 231 160C231 158.674 230.466 157.402 229.517 156.464C228.567 155.527 227.279 155 225.936 155H35.064Z" fill="#E6E6E6"/>
<path d="M35.064 186C33.7209 186 32.4329 186.579 31.4832 187.611C30.5335 188.642 30 190.041 30 191.5C30 192.959 30.5335 194.358 31.4832 195.389C32.4329 196.421 33.7209 197 35.064 197H225.936C227.279 197 228.567 196.421 229.517 195.389C230.466 194.358 231 192.959 231 191.5C231 190.041 230.466 188.642 229.517 187.611C228.567 186.579 227.279 186 225.936 186H35.064Z" fill="#E6E6E6"/>
<path d="M120.167 219C118.796 219 117.482 219.527 116.513 220.464C115.544 221.402 115 222.674 115 224C115 225.326 115.544 226.598 116.513 227.536C117.482 228.473 118.796 229 120.167 229H140.833C142.204 229 143.518 228.473 144.487 227.536C145.456 226.598 146 225.326 146 224C146 222.674 145.456 221.402 144.487 220.464C143.518 219.527 142.204 219 140.833 219H120.167Z" fill="#004AAD"/>
<path d="M103.547 91C103.137 91.0004 102.744 91.166 102.454 91.4604C102.164 91.7548 102 92.1539 102 92.5702V132.43C102 132.846 102.164 133.245 102.454 133.54C102.744 133.834 103.137 134 103.547 134H157.453C157.863 134 158.256 133.834 158.546 133.54C158.836 133.245 159 132.846 159 132.43V92.5702C159 92.1539 158.836 91.7547 158.546 91.4604C158.256 91.166 157.863 91.0004 157.453 91L103.547 91Z" fill="#004AAD"/>
<path d="M130.5 116C135.194 116 139 112.194 139 107.5C139 102.806 135.194 99 130.5 99C125.806 99 122 102.806 122 107.5C122 112.194 125.806 116 130.5 116Z" fill="white"/>
<path d="M145 129.937C145.003 131.35 144.683 132.743 144.067 134H117.936C117.27 132.637 116.95 131.119 117.006 129.59C117.063 128.061 117.495 126.573 118.259 125.269C119.024 123.964 120.097 122.887 121.375 122.139C122.653 121.392 124.093 120.999 125.557 121H136.445C138.713 120.999 140.888 121.938 142.492 123.613C144.097 125.287 144.999 127.558 145 129.927V129.937Z" fill="white"/>
<path d="M130.5 116C135.194 116 139 112.194 139 107.5C139 102.806 135.194 99 130.5 99C125.806 99 122 102.806 122 107.5C122 112.194 125.806 116 130.5 116Z" fill="white"/>
<path d="M145 129.937C145.003 131.35 144.683 132.743 144.067 134H117.936C117.27 132.637 116.95 131.119 117.006 129.59C117.063 128.061 117.495 126.573 118.259 125.269C119.024 123.964 120.097 122.887 121.375 122.139C122.653 121.392 124.093 120.999 125.557 121H136.445C138.713 120.999 140.888 121.938 142.492 123.613C144.097 125.287 144.999 127.558 145 129.927V129.937Z" fill="white"/>
<path d="M130.5 41C141.822 41 151 31.8218 151 20.5C151 9.17816 141.822 0 130.5 0C119.178 0 110 9.17816 110 20.5C110 31.8218 119.178 41 130.5 41Z" fill="#E6E6E6"/>
<path d="M131 30C136.523 30 141 25.5228 141 20C141 14.4772 136.523 10 131 10C125.477 10 121 14.4772 121 20C121 25.5228 125.477 30 131 30Z" fill="#004AAD"/>
<path d="M661 338C672.598 338 682 328.822 682 317.5C682 306.178 672.598 297 661 297C649.402 297 640 306.178 640 317.5C640 328.822 649.402 338 661 338Z" fill="#FFB8B8"/>
<path d="M589.071 453.83C589.221 452.661 589.627 451.539 590.263 450.542C590.899 449.545 591.748 448.698 592.751 448.06C593.754 447.423 594.886 447.01 596.068 446.852C597.25 446.694 598.452 446.793 599.591 447.144L611.532 433L622 438.074L604.853 457.813C604.131 459.664 602.746 461.189 600.962 462.098C599.177 463.008 597.117 463.239 595.172 462.748C593.227 462.257 591.531 461.078 590.407 459.434C589.282 457.791 588.807 455.797 589.071 453.83V453.83Z" fill="#FFB8B8"/>
<path d="M689.779 468.366C689.271 467.313 689.005 466.165 689 465.001C688.995 463.838 689.252 462.688 689.752 461.631C690.252 460.575 690.983 459.639 691.893 458.888C692.804 458.138 693.872 457.591 695.023 457.287L697.418 439.252L709 438L705.25 463.424C705.645 465.344 705.305 467.339 704.293 469.031C703.282 470.723 701.67 471.994 699.763 472.603C697.856 473.212 695.787 473.118 693.947 472.336C692.106 471.555 690.624 470.143 689.779 468.366L689.779 468.366Z" fill="#FFB8B8"/>
<path d="M678.178 356.985C679.293 355.55 680.766 354.436 682.449 353.754C684.132 353.072 685.964 352.847 687.761 353.102C689.559 353.356 691.257 354.08 692.686 355.202C694.114 356.324 695.222 357.803 695.897 359.491L713.088 402.462C714.844 406.853 715.405 411.633 714.711 416.312L709.111 454.081C709.039 454.569 708.863 455.035 708.594 455.447C708.325 455.86 707.971 456.21 707.555 456.473C707.139 456.735 706.671 456.905 706.184 456.97C705.696 457.035 705.2 456.994 704.73 456.849L697.353 454.58C696.589 454.345 695.931 453.849 695.495 453.179C695.058 452.509 694.87 451.706 694.963 450.911C697.567 428.676 694.125 406.148 685.003 385.71L676.899 367.553C676.134 365.841 675.85 363.953 676.075 362.091C676.3 360.23 677.027 358.464 678.178 356.985V356.985Z" fill="#004AAD"/>
<path d="M666.078 337.995C669.243 338.062 672.386 337.468 675.302 336.252C678.218 335.036 680.84 333.225 682.995 330.939C685.151 328.652 686.792 325.941 687.809 322.985C688.827 320.028 689.199 316.893 688.9 313.785C688.601 310.677 687.639 307.666 686.077 304.95C684.514 302.235 682.387 299.877 679.834 298.03C677.281 296.183 674.361 294.89 671.266 294.236C668.17 293.581 664.969 293.58 661.873 294.232C657.249 291.463 651.872 289.6 646.482 290.074C641.093 290.548 635.764 293.703 633.749 298.655C631.733 303.607 633.898 310.134 638.909 312.146C642.122 313.436 645.749 312.811 649.178 312.291C652.606 311.77 656.346 311.431 659.33 313.175C662.313 314.92 663.655 319.597 660.982 321.779C659.566 322.981 658.554 324.58 658.083 326.363C657.611 328.146 657.701 330.029 658.341 331.76C659.684 335.185 663.35 337.937 666.078 337.995Z" fill="#2F2E41"/>
<path d="M692.26 453.327L695.999 593.519C696.011 593.986 695.926 594.451 695.748 594.884C695.57 595.317 695.303 595.709 694.964 596.036C694.626 596.362 694.222 596.616 693.78 596.781C693.337 596.946 692.865 597.019 692.392 596.996L680.075 596.375C679.289 596.335 678.541 596.03 677.955 595.51C677.37 594.99 676.983 594.288 676.86 593.52L662.209 502.464C662.146 502.075 661.948 501.719 661.648 501.458C661.349 501.197 660.966 501.048 660.567 501.035C660.168 501.023 659.777 501.149 659.461 501.391C659.146 501.633 658.926 501.976 658.839 502.361L639.007 590.031C638.901 590.5 638.696 590.941 638.404 591.325C638.113 591.709 637.742 592.028 637.317 592.26C636.891 592.492 636.421 592.633 635.937 592.672C635.452 592.711 634.965 592.648 634.507 592.487L622.283 591.749C621.576 591.501 620.97 591.03 620.56 590.41C620.149 589.789 619.955 589.052 620.009 588.313L630.68 452L692.26 453.327Z" fill="#2F2E41"/>
<path d="M697.82 386.351C699.873 365.039 684.132 345.763 662.678 344.247C653.434 343.593 639.083 343.36 634.353 355.42C620.102 391.752 645.049 390.869 636.454 422.346C627.858 453.823 620.267 455.627 632.061 457.9C643.854 460.173 696.888 473.591 694.71 451.436C693.372 437.818 695.772 407.609 697.82 386.351Z" fill="#004AAD"/>
<path d="M637.116 351.689C638.789 351.04 640.604 350.845 642.377 351.123C644.15 351.401 645.818 352.143 647.214 353.273C648.609 354.403 649.682 355.882 650.324 357.56C650.966 359.238 651.155 361.056 650.872 362.831L644.254 404.251C643.122 411.334 640.131 417.989 635.587 423.533L614.093 449.764C613.785 450.14 613.399 450.445 612.961 450.659C612.524 450.872 612.046 450.988 611.56 450.999C611.074 451.01 610.591 450.916 610.145 450.723C609.698 450.53 609.298 450.243 608.973 449.881L603.867 444.203C603.339 443.615 603.033 442.86 603.002 442.069C602.972 441.279 603.22 440.503 603.702 439.876L605.206 437.922C617.71 421.671 625.599 402.339 628.038 381.969L630.669 360C630.89 358.159 631.606 356.413 632.742 354.949C633.877 353.485 635.389 352.358 637.116 351.689V351.689Z" fill="#004AAD"/>
</svg>
